<svg xmlns="http://www.w3.org/2000/svg" viewBox="0 0 1024 1024" role="img" aria-label="Vehix"><title>Vehix</title><defs><linearGradient id="vxmkbg" x1="0" y1="0" x2="1024" y2="1024" gradientUnits="userSpaceOnUse"><stop offset="0" stop-color="#3F78F2"/><stop offset="1" stop-color="#1846C8"/></linearGradient></defs><rect x="0" y="0" width="1024" height="1024" rx="0.0" fill="url(#vxmkbg)"/><g transform="translate(276.5 322.7) scale(0.6314)"><g transform="translate(-30 -33)"><path d="M48 125 L205 125 C255 125 290 145 315 185 L470 440 Q482 462 512 467 C492 520 445 578 375 580 C310 582 265 550 238 500 L36 145 C30 133 36 125 48 125 Z" fill="#FFFFFF"/><path d="M590 35 L755 35 C768 35 774 47 767 58 L553 402 C545 416 528 424 512 410 L404 240 C397 228 398 216 405 206 L520 68 C538 47 560 35 590 35 Z" fill="#FFFFFF"/></g></g></svg>
